<?xml version="1.0" encoding="UTF-8"?>
<svg version="1.1" xmlns="http://www.w3.org/2000/svg" width="512" height="512">
<path d="M0 0 C168.96 0 337.92 0 512 0 C512 168.96 512 337.92 512 512 C343.04 512 174.08 512 0 512 C0 343.04 0 174.08 0 0 Z " fill="#00151A" transform="translate(0,0)"/>
<path d="M0 0 C6.75 -0.125 6.75 -0.125 9 1 C9.68112307 2.995123 10.34561559 4.99594773 11 7 C17.69320671 19.34059988 27.25450558 30.14988343 36.10742188 40.98046875 C39.66878607 45.34115205 43.16727551 49.74434584 46.625 54.1875 C50.75059597 59.48363848 55.01298114 64.64470715 59.38525391 69.73901367 C61.2120432 71.86958288 62.95564308 73.93081732 64.47265625 76.296875 C66.61286194 78.68339592 68.29249639 78.73239663 71.4375 79.125 C72.49710937 79.27324219 73.55671875 79.42148438 74.6484375 79.57421875 C75.75445312 79.71472656 76.86046875 79.85523438 78 80 C80.18944603 80.29856082 82.37712188 80.61049087 84.5625 80.9375 C85.53316406 81.07027344 86.50382812 81.20304687 87.50390625 81.33984375 C90.29528294 82.07809517 91.319527 82.67730802 93 85 C93.59765625 86.98046875 93.59765625 86.98046875 94.0625 89.1875 C96.67480277 97.34105108 104.21658172 101.19069599 111.40380859 104.99853516 C134.47138766 116.71803098 159.01579322 123.72508642 184 130 C184.70809814 130.18723633 185.41619629 130.37447266 186.14575195 130.56738281 C189.26028695 131.2940393 191.81571496 131.3351879 195 131 C197.93973281 128.64581624 197.93973281 128.64581624 200 126 C200.23400743 144.74659513 200.23400743 144.74659513 197.5625 149.625 C179.06581498 166.76826904 141.84361019 166.62472688 118.00830078 169.01220703 C117.02071777 169.1151709 116.03313477 169.21813477 115.015625 169.32421875 C114.16258789 169.40760498 113.30955078 169.49099121 112.43066406 169.5769043 C109.72077401 170.04860372 107.47550821 170.80296854 105 172 C103.79865761 174.11393124 103.79865761 174.11393124 103.25 176.5625 C102.0397351 180.9602649 102.0397351 180.9602649 101 182 C100.34123526 185.78553327 99.98483173 189.61933122 99.5625 193.4375 C99.43125732 194.61352783 99.30001465 195.78955566 99.16479492 197.0012207 C97.54324909 212.29334012 96.77544443 227.6456434 96 243 C97.65 243 99.3 243 101 243 C100.34 243.99 99.68 244.98 99 246 C98.03657075 254.6958874 99.48707469 262.69837173 102 271 C96.99425671 274.82552739 91.75221283 277.7742519 85.9375 280.1875 C84.81214844 280.65542969 83.68679688 281.12335938 82.52734375 281.60546875 C70.15621343 285.79965681 57.44566752 286.54680242 44.5 286.4375 C43.32596115 286.43243942 43.32596115 286.43243942 42.12820435 286.42727661 C28.43149763 286.34229888 15.36926061 285.11305487 2 282 C0.94087402 281.75862305 -0.11825195 281.51724609 -1.20947266 281.26855469 C-31.37528279 274.25940108 -68.62432642 264.40754067 -93 244 C-94.81231834 241.0818603 -95.27311648 238.85295952 -95.25 235.4375 C-95.25773437 234.29087891 -95.25773437 234.29087891 -95.265625 233.12109375 C-95 231 -95 231 -93 228 C-92.34 228 -91.68 228 -91 228 C-90.90079132 222.00436173 -90.82837055 216.009206 -90.78027344 210.01293945 C-90.76021368 207.97509432 -90.73295901 205.93730634 -90.69824219 203.8996582 C-90.64947566 200.96290953 -90.62697459 198.02692482 -90.609375 195.08984375 C-90.57840729 193.73317848 -90.57840729 193.73317848 -90.54681396 192.34910583 C-90.54468479 186.28581466 -91.66437724 183.05266986 -95 178 C-95.26167969 177.07445312 -95.52335937 176.14890625 -95.79296875 175.1953125 C-96.88608435 172.65488654 -96.88608435 172.65488654 -100.17578125 171.7421875 C-101.54926089 171.42835114 -102.92899197 171.14116744 -104.3125 170.875 C-105.43833496 170.63535522 -105.43833496 170.63535522 -106.58691406 170.39086914 C-115.98194207 168.46706122 -125.49635293 167.24452521 -135 166 C-145.20513499 164.66361328 -155.35655061 163.32275373 -165.390625 160.9921875 C-166.06399902 160.83717773 -166.73737305 160.68216797 -167.43115234 160.52246094 C-176.30530723 158.35052781 -185.0187194 154.97004895 -190 147 C-191.92542807 142.32202335 -192.25083807 138.11980339 -192.125 133.125 C-192.11597656 132.43664062 -192.10695312 131.74828125 -192.09765625 131.0390625 C-192.07432513 129.35922162 -192.03846326 127.67956254 -192 126 C-191.01 126 -190.02 126 -189 126 C-188.13375 127.2375 -188.13375 127.2375 -187.25 128.5 C-185.22487979 131.30663802 -185.22487979 131.30663802 -182.0390625 131.33203125 C-176.89022493 131.13144444 -172.04620664 129.61411381 -167.125 128.1875 C-166.05217773 127.87981689 -164.97935547 127.57213379 -163.87402344 127.25512695 C-135.40772018 118.95365618 -135.40772018 118.95365618 -108 107.75 C-107.20110352 107.37447998 -106.40220703 106.99895996 -105.57910156 106.61206055 C-96.6092789 102.14937088 -88.26470635 96.54248502 -84.875 86.75 C-84.58625 85.8425 -84.2975 84.935 -84 84 C-81.4531376 81.4531376 -80.33319421 81.69725333 -76.79296875 81.4921875 C-62.55198495 80.57646894 -62.55198495 80.57646894 -51.25708008 72.81298828 C-49.20509635 70.00410079 -47.27870993 67.14092033 -45.43164062 64.19335938 C-43.06594436 60.5689707 -40.27353026 57.315607 -37.5 54 C-36.41469327 52.66566518 -35.33135765 51.3297247 -34.25 49.9921875 C-32.0965062 47.34043942 -29.92902212 44.70111504 -27.75 42.0703125 C-10.77837052 22.74923524 -10.77837052 22.74923524 0 0 Z " fill="#FBFBFB" transform="translate(252,113)"/>
<path d="M0 0 C0.66999932 -0.00467997 1.33999864 -0.00935994 2.03030097 -0.01418173 C4.2804003 -0.02616878 6.5298947 -0.01666024 8.77999878 -0.00723267 C10.39143734 -0.01129697 12.00287311 -0.01663805 13.61430359 -0.02316284 C17.99689107 -0.03686569 22.37926718 -0.03152387 26.76185846 -0.02202559 C31.35009492 -0.0144365 35.93831313 -0.02147323 40.52655029 -0.02618408 C48.2388331 -0.03164713 55.95102982 -0.02443909 63.66329956 -0.01016235 C72.5672372 0.00613054 81.47096839 0.00090239 90.37490094 -0.01564157 C98.02346435 -0.02928228 105.67196579 -0.03116243 113.32053745 -0.02332556 C117.88657883 -0.01865877 122.45252342 -0.01799609 127.0185585 -0.02793503 C131.31794759 -0.0366388 135.6170726 -0.03052081 139.91643333 -0.01325226 C141.48973211 -0.00930406 143.06305332 -0.01039272 144.636343 -0.01704025 C155.76171194 -0.05969132 164.210128 0.73046602 173.4357605 7.31845093 C189.21753642 17.98108485 207.11744692 25.402911 225.4357605 30.38095093 C225.4357605 31.04095093 225.4357605 31.70095093 225.4357605 32.38095093 C220.06667884 34.50760021 214.9136338 34.96480835 209.2170105 35.41610718 C207.75285706 35.54148109 207.75285706 35.54148109 206.25912476 35.66938782 C203.15187512 35.93433373 200.04391618 36.18937498 196.9357605 36.44345093 C193.82777818 36.70281068 190.71999203 36.96427509 187.61239624 37.22822571 C185.68272087 37.39157041 183.75279553 37.55199614 181.82260132 37.70909119 C177.31033993 38.08575764 172.89895265 38.59709429 168.4357605 39.38095093 C166.96011364 39.51389351 165.48182464 39.62106887 164.00216675 39.69735718 C163.19505249 39.73941284 162.38793823 39.78146851 161.55636597 39.82479858 C160.71219116 39.86395386 159.86801636 39.90310913 158.9982605 39.94345093 C158.12314819 39.98518433 157.24803589 40.02691772 156.34640503 40.06991577 C134.74227862 41.03420999 134.74227862 41.03420999 131.4357605 39.38095093 C130.84220436 36.73234666 130.69366781 34.08897771 130.4357605 31.38095093 C128.7857605 31.38095093 127.1357605 31.38095093 125.4357605 31.38095093 C124.50510917 33.98677464 124.28658643 35.02293316 125.3732605 37.63095093 C125.7238855 38.20845093 126.0745105 38.78595093 126.4357605 39.38095093 C123.4357605 41.38095093 123.4357605 41.38095093 120.7482605 41.00595093 C119.9851355 40.79970093 119.2220105 40.59345093 118.4357605 40.38095093 C118.4357605 37.08095093 118.4357605 33.78095093 118.4357605 30.38095093 C116.4557605 30.87595093 116.4557605 30.87595093 114.4357605 31.38095093 C114.4976355 32.49470093 114.5595105 33.60845093 114.6232605 34.75595093 C114.5613855 35.95220093 114.4995105 37.14845093 114.4357605 38.38095093 C111.22641376 40.52051542 110.40810832 40.63162046 106.72070312 40.63491821 C105.26601372 40.64337769 105.26601372 40.64337769 103.78193665 40.65200806 C102.18769615 40.64593536 102.18769615 40.64593536 100.56124878 40.63973999 C99.44052475 40.64324463 98.31980072 40.64674927 97.16511536 40.65036011 C93.44537222 40.65918923 89.72581822 40.65332005 86.006073 40.64657593 C83.41833459 40.64792318 80.83059643 40.64986422 78.24285889 40.65237427 C72.80713267 40.65532791 67.37147751 40.65121456 61.9357605 40.64169312 C55.68125386 40.63086282 49.42687818 40.63429346 43.17237484 40.64534593 C37.13411311 40.65558386 31.0959145 40.65441117 25.05764389 40.64858246 C22.50058855 40.64725463 19.94352983 40.64886306 17.38647842 40.65354156 C13.79230424 40.65866973 10.19837377 40.65080632 6.60421753 40.63973999 C5.0403405 40.64581268 5.0403405 40.64581268 3.44487 40.65200806 C-3.08758793 40.61509314 -9.31703922 39.94286723 -15.75725651 38.84480572 C-19.16228192 38.28212424 -22.46571949 38.02295925 -25.91189575 37.85360718 C-27.16784546 37.78528687 -28.42379517 37.71696655 -29.71780396 37.64657593 C-31.00775269 37.57954468 -32.29770142 37.51251343 -33.6267395 37.44345093 C-42.92175572 36.91360859 -52.16061615 36.25477762 -61.3767395 34.88095093 C-62.19344116 34.76243774 -63.01014282 34.64392456 -63.85159302 34.52182007 C-69.30136619 33.64382424 -69.30136619 33.64382424 -71.5642395 31.38095093 C-70.5642395 30.38095093 -70.5642395 30.38095093 -67.0017395 29.69345093 C-54.97467401 27.04787178 -43.81496676 21.70191864 -32.7517395 16.44345093 C-31.71468872 15.95376831 -30.67763794 15.46408569 -29.60916138 14.95956421 C-17.93041309 9.79493826 -17.93041309 9.79493826 -8.33258247 1.80406761 C-5.64770919 -0.35664896 -3.40675137 0.00320491 0 0 Z " fill="#02171C" transform="translate(177.56423950195313,218.61904907226563)"/>
<path d="M0 0 C10.72640062 -0.12837448 21.29794083 0.2355672 32 1 C32 9.58 32 18.16 32 27 C27.8005058 27.04597986 23.60188935 27.08578332 19.40234375 27.10986328 C17.97457922 27.11990427 16.54683517 27.13353981 15.11914062 27.15087891 C13.06375059 27.17521152 11.00863308 27.18650202 8.953125 27.1953125 C7.09929199 27.21102295 7.09929199 27.21102295 5.20800781 27.22705078 C2.18340629 27.01298081 0.53014349 26.59653159 -2 25 C-2.22588024 16.40400201 -1.91958262 8.39817396 0 0 Z " fill="#03181D" transform="translate(270,302)"/>
<path d="M0 0 C10.72598322 -0.14051506 21.29594915 0.29229416 32 1 C32 9.58 32 18.16 32 27 C27.63979181 27.04592378 23.28042339 27.08574415 18.92016602 27.10986328 C17.43706417 27.11991821 15.95398212 27.13356404 14.47094727 27.15087891 C12.33865469 27.17515006 10.20662431 27.18648799 8.07421875 27.1953125 C6.14968872 27.21102295 6.14968872 27.21102295 4.1862793 27.22705078 C1 27 1 27 -2 25 C-3.53448999 17.16255112 -1.16367218 7.79244762 0 0 Z " fill="#04181D" transform="translate(211,302)"/>
<path d="M0 0 C9.17538612 3.76211732 16.14851853 15.59671598 22.08984375 23.27734375 C24.58338996 26.49134215 27.15336067 29.63524976 29.74365234 32.77148438 C35.09746187 39.26464098 40.23613166 45.88161916 45.1875 52.6875 C45.74034668 53.44192383 46.29319336 54.19634766 46.86279297 54.97363281 C49.42027097 58.53081572 51.64420792 61.78290439 53 66 C49.45791353 63.32649474 46.68259025 60.60528783 43.9375 57.125 C40.41882902 52.73103773 36.81395748 48.43910947 33.125 44.1875 C28.101819 38.37400306 23.32438523 32.40042506 18.609375 26.3359375 C15.46726895 22.29975521 12.22623232 18.34920519 8.97265625 14.40234375 C6.96028639 11.95163591 4.97606851 9.48003229 3 7 C-5.49729256 10.57380537 -11.17403335 20.40743002 -16.69702148 27.53735352 C-20.53552702 32.47105408 -24.55703228 37.22199113 -28.6484375 41.94677734 C-32.50242129 46.4007449 -36.24065531 50.93887744 -39.953125 55.51171875 C-42.88802184 59.07952273 -45.92671669 62.55120297 -49 66 C-49.66 65.67 -50.32 65.34 -51 65 C-45.83912248 56.99919826 -40.34561018 49.36937647 -34.46728516 41.87792969 C-32.84685472 39.80399443 -31.24114271 37.71915301 -29.63671875 35.6328125 C-22.64353998 26.55641576 -15.50562946 17.65754351 -8 9 C-7.27425781 8.16210938 -6.54851562 7.32421875 -5.80078125 6.4609375 C-1.34246575 1.34246575 -1.34246575 1.34246575 0 0 Z " fill="#102328" transform="translate(255,127)"/>
<path d="M0 0 C0.66 0 1.32 0 2 0 C2.48781989 1.49720822 2.96472363 2.99797364 3.4375 4.5 C3.70433594 5.3353125 3.97117188 6.170625 4.24609375 7.03125 C6.25993986 14.96142119 6.18629102 22.89585113 6.18530273 31.03637695 C6.18749899 33.06157158 6.20573818 35.08622869 6.22460938 37.11132812 C6.22654297 38.40619141 6.22847656 39.70105469 6.23046875 41.03515625 C6.23457764 42.2044165 6.23868652 43.37367676 6.24291992 44.57836914 C5.97445871 48.35976001 5.15687802 51.40270254 4 55 C3.01 54.67 2.02 54.34 1 54 C0.01714847 49.8342485 -0.19673908 45.83997084 -0.31640625 41.56640625 C-0.33718735 40.85201889 -0.35796844 40.13763153 -0.37937927 39.40159607 C-0.42250004 37.88961311 -0.46355891 36.37757011 -0.50268555 34.86547852 C-0.56150228 32.60091419 -0.62684086 30.33661537 -0.69335938 28.07226562 C-1.28212513 7.34629217 -1.28212513 7.34629217 -1 1 C-0.67 0.67 -0.34 0.34 0 0 Z " fill="#0F2328" transform="translate(175,287)"/>
<path d="M0 0 C0.66 0 1.32 0 2 0 C1.9278125 0.98097656 1.855625 1.96195312 1.78125 2.97265625 C0.34978208 22.17994184 0.34978208 22.17994184 3.34375 41.09765625 C4.03484071 44.15408717 4.11136936 46.87701742 4 50 C2.13671875 49.73828125 2.13671875 49.73828125 0 49 C-1.23046875 47.29296875 -1.23046875 47.29296875 -2.1875 45.1875 C-2.51105469 44.50042969 -2.83460938 43.81335938 -3.16796875 43.10546875 C-5.51510558 37.16600043 -5.257498 31.24806329 -5.3125 24.9375 C-5.34150391 23.85533203 -5.37050781 22.77316406 -5.40039062 21.65820312 C-5.4595458 14.0726901 -4.23354147 7.88984858 -1 1 C-0.67 0.67 -0.34 0.34 0 0 Z " fill="#0D2126" transform="translate(337,294)"/>
<path d="M0 0 C3.02599191 4.53898786 3.30141184 9.41712335 4.125 14.75 C4.30313232 15.90129395 4.48126465 17.05258789 4.66479492 18.23876953 C6.36226747 30.08458128 8.31181356 44.2694797 5 56 C4.34 56 3.68 56 3 56 C2.10736167 52.12768435 1.82501865 48.45362204 1.71875 44.484375 C1.68136719 43.23269531 1.64398438 41.98101562 1.60546875 40.69140625 C1.57066406 39.39074219 1.53585938 38.09007812 1.5 36.75 C1.21325951 25.81516786 1.21325951 25.81516786 0.20947266 14.93115234 C-0.11599082 11.93066738 -0.09423585 8.95240596 -0.0625 5.9375 C-0.05347656 4.81214844 -0.04445312 3.68679688 -0.03515625 2.52734375 C-0.02355469 1.69332031 -0.01195312 0.85929687 0 0 Z " fill="#12262A" transform="translate(165,284)"/>
<path d="M0 0 C0.33 0 0.66 0 1 0 C1 16.83 1 33.66 1 51 C-4.82294735 45.17705265 -3.2061832 29.41500224 -3.25 21.5625 C-3.25918457 20.65209961 -3.26836914 19.74169922 -3.27783203 18.80371094 C-3.24874014 12.42909658 -2.89869127 5.79738255 0 0 Z " fill="#293A3E" transform="translate(345,293)"/>
<path d="M0 0 C1.875 0.8125 1.875 0.8125 2.875 2.8125 C3.33248683 10.01791761 3.33248683 10.01791761 1.6875 12.875 C-0.86228665 14.19385516 -2.44246098 13.6100116 -5.125 12.8125 C-5.20621924 11.20917209 -5.26429134 9.60465974 -5.3125 8 C-5.34730469 7.10667969 -5.38210938 6.21335937 -5.41796875 5.29296875 C-5.125 2.8125 -5.125 2.8125 -3.74609375 0.9765625 C-2.125 -0.1875 -2.125 -0.1875 0 0 Z " fill="#16292E" transform="translate(288.125,358.1875)"/>
<path d="M0 0 C2 0.1875 2 0.1875 4 1 C6.71232939 5.06849409 6.30699887 7.16476784 6 12 C5.34 12.66 4.68 13.32 4 14 C1.4375 13.75 1.4375 13.75 -1 13 C-2.17673198 10.64653604 -2.16623866 9.1193967 -2.1875 6.5 C-2.20167969 5.7059375 -2.21585938 4.911875 -2.23046875 4.09375 C-2 2 -2 2 0 0 Z " fill="#11252A" transform="translate(236,358)"/>
<path d="M0 0 C3.875 0.875 3.875 0.875 5 2 C5.1245486 3.64230364 5.17568524 5.29052276 5.1875 6.9375 C5.20167969 7.83339844 5.21585937 8.72929687 5.23046875 9.65234375 C5 12 5 12 3 14 C-1.55555556 13.44444444 -1.55555556 13.44444444 -3 12 C-3.38606152 6.98120022 -2.97663853 4.09287798 0 0 Z " fill="#12262A" transform="translate(321,358)"/>
<path d="M0 0 C1.9375 0.375 1.9375 0.375 4 1 C5.5923093 4.18461859 5.38905037 7.53391489 5 11 C3.8125 13.0625 3.8125 13.0625 2 14 C-0.6875 13.6875 -0.6875 13.6875 -3 13 C-3.4726477 4.80743982 -3.4726477 4.80743982 -1.5 1.4375 C-0.7575 0.7259375 -0.7575 0.7259375 0 0 Z " fill="#12262A" transform="translate(225,358)"/>
<path d="M0 0 C1.875 0.3125 1.875 0.3125 4 1 C6.13586678 4.20380017 6.23132175 5.01939967 6.125 8.6875 C6.10695312 9.49574219 6.08890625 10.30398438 6.0703125 11.13671875 C6.03550781 12.05904297 6.03550781 12.05904297 6 13 C1.597254 14.30892449 1.597254 14.30892449 -0.8125 13.0625 C-2.64277467 9.88360188 -2.55653201 6.5849335 -2 3 C-1.34 2.01 -0.68 1.02 0 0 Z " fill="#14272C" transform="translate(200,358)"/>
<path d="M0 0 C1.32 0 2.64 0 4 0 C6.4947448 2.94023494 6.98541136 4.82785409 7.3125 8.6875 C7 12 7 12 5 14 C2.4375 13.75 2.4375 13.75 0 13 C-1.18306728 10.63386544 -1.13354608 9.13219264 -1.125 6.5 C-1.12757813 5.7059375 -1.13015625 4.911875 -1.1328125 4.09375 C-1 2 -1 2 0 0 Z " fill="#0E2227" transform="translate(296,358)"/>
<path d="M0 0 C1.32 0 2.64 0 4 0 C5.18306728 2.36613456 5.13354608 3.86780736 5.125 6.5 C5.12757813 7.2940625 5.13015625 8.088125 5.1328125 8.90625 C5 11 5 11 4 13 C2.02 13 0.04 13 -2 13 C-2.05447047 11.58376784 -2.09300508 10.16691809 -2.125 8.75 C-2.14820313 7.96109375 -2.17140625 7.1721875 -2.1953125 6.359375 C-1.9828378 3.79268059 -1.28654105 2.2083933 0 0 Z " fill="#091D22" transform="translate(189,358)"/>
<path d="M0 0 C2 0.3125 2 0.3125 4 1 C5.5121867 4.02437339 5.17263369 6.66241534 5 10 C4 12.4375 4 12.4375 3 14 C1.68 13.34 0.36 12.68 -1 12 C-1.02687279 10.18757948 -1.04633715 8.37504767 -1.0625 6.5625 C-1.07410156 5.55316406 -1.08570313 4.54382813 -1.09765625 3.50390625 C-1 1 -1 1 0 0 Z " fill="#112429" transform="translate(332,358)"/>
<path d="M0 0 C1.32 0 2.64 0 4 0 C5.16983345 2.3396669 5.1661241 3.83391527 5.1875 6.4375 C5.20167969 7.21996094 5.21585938 8.00242187 5.23046875 8.80859375 C5 11 5 11 3 14 C2.01 13.67 1.02 13.34 0 13 C-1.29721449 9.10835652 -1.13033993 6.10570774 -1 2 C-0.67 1.34 -0.34 0.68 0 0 Z " fill="#0D2126" transform="translate(212,358)"/>
<path d="M0 0 C2 0.3125 2 0.3125 4 1 C5.5121867 4.02437339 5.17263369 6.66241534 5 10 C4 12.4375 4 12.4375 3 14 C1.68 13.34 0.36 12.68 -1 12 C-1.02687279 10.18757948 -1.04633715 8.37504767 -1.0625 6.5625 C-1.07410156 5.55316406 -1.08570313 4.54382813 -1.09765625 3.50390625 C-1 1 -1 1 0 0 Z " fill="#112429" transform="translate(309,358)"/>
<path d="M0 0 C3.875 0.875 3.875 0.875 5 2 C5.41221374 10.38167939 5.41221374 10.38167939 3 14 C2.01 13.67 1.02 13.34 0 13 C-1.18306728 10.63386544 -1.13354608 9.13219264 -1.125 6.5 C-1.12757813 5.7059375 -1.13015625 4.911875 -1.1328125 4.09375 C-1 2 -1 2 0 0 Z " fill="#0C2024" transform="translate(273,358)"/>
<path d="M0 0 C0.6875 1.8125 0.6875 1.8125 1 4 C-0.1875 5.8125 -0.1875 5.8125 -2 7 C-4.1875 6.6875 -4.1875 6.6875 -6 6 C-6.33 4.02 -6.66 2.04 -7 0 C-4.3333581 -1.33332095 -2.83319697 -0.67102033 0 0 Z " fill="#E9EBEB" transform="translate(216,236)"/>
<path d="M0 0 C-0.75 6.75 -0.75 6.75 -3 9 C-5.125 8.625 -5.125 8.625 -7 8 C-7.36275695 3.52599758 -7.36275695 3.52599758 -5.75 1.1875 C-4 0 -4 0 0 0 Z " fill="#EFF0F1" transform="translate(342,234)"/>
<path d="M0 0 C3.69230769 0.69230769 3.69230769 0.69230769 5 2 C5.04080783 3.99958364 5.04254356 6.00045254 5 8 C3.68 8.33 2.36 8.66 1 9 C-0.5625 7.25 -0.5625 7.25 -2 5 C-1.75203633 2.83031791 -1.55766393 1.55766393 0 0 Z " fill="#E9EBEB" transform="translate(140,244)"/>
<path d="M0 0 C2.05636087 3.08454131 2.51134354 4.84809674 3.125 8.4375 C3.29257813 9.38496094 3.46015625 10.33242188 3.6328125 11.30859375 C4 14 4 14 4 18 C3.34 18 2.68 18 2 18 C1.67 19.32 1.34 20.64 1 22 C0.00137301 14.63512596 -0.10331031 7.42686315 0 0 Z " fill="#344549" transform="translate(165,284)"/>
<path d="M0 0 C0.66 0 1.32 0 2 0 C3.26237731 2.52475462 3.09856404 4.31200466 3.0625 7.125 C3.05347656 8.03507812 3.04445313 8.94515625 3.03515625 9.8828125 C3.02355469 10.58148438 3.01195312 11.28015625 3 12 C2.01 12 1.02 12 0 12 C-1.1671568 8.49852959 -1.13357453 5.67329964 -1 2 C-0.67 1.34 -0.34 0.68 0 0 Z " fill="#203237" transform="translate(264,359)"/>
<path d="M0 0 C1.32 0.66 2.64 1.32 4 2 C4 3.65 4 5.3 4 7 C2.02 7.99 2.02 7.99 0 9 C-2 7 -2 7 -2.25 4.5 C-2 2 -2 2 0 0 Z " fill="#EAECEC" transform="translate(337,221)"/>
<path d="M0 0 C3 1 3 1 4 3 C4.23333333 9.53333333 4.23333333 9.53333333 3 12 C2.01 11.67 1.02 11.34 0 11 C0 7.37 0 3.74 0 0 Z " fill="#1A2D31" transform="translate(247,359)"/>
<path d="M0 0 C2.125 0.375 2.125 0.375 4 1 C4 2.98 4 4.96 4 7 C2.35 7.33 0.7 7.66 -1 8 C-1.625 5.125 -1.625 5.125 -2 2 C-1.34 1.34 -0.68 0.68 0 0 Z " fill="#E6E8E9" transform="translate(326,235)"/>
<path d="M0 0 C0.78375 0.04125 1.5675 0.0825 2.375 0.125 C2.5 2.5 2.5 2.5 2.375 5.125 C1.715 5.785 1.055 6.445 0.375 7.125 C-0.945 7.125 -2.265 7.125 -3.625 7.125 C-4.25 4.75 -4.25 4.75 -4.625 2.125 C-2.625 0.125 -2.625 0.125 0 0 Z " fill="#F4F5F5" transform="translate(306.625,235.875)"/>
<path d="M0 0 C1.65 0 3.3 0 5 0 C5.625 2.3125 5.625 2.3125 6 5 C5.01 6.485 5.01 6.485 4 8 C2.68 7.34 1.36 6.68 0 6 C0 4.02 0 2.04 0 0 Z " fill="#E8EAEA" transform="translate(221,235)"/>
<path d="M0 0 C2.0625 0.4375 2.0625 0.4375 4 1 C3.67 3.31 3.34 5.62 3 8 C1.68 8 0.36 8 -1 8 C-1.04241723 5.66705225 -1.04092937 3.33297433 -1 1 C-0.67 0.67 -0.34 0.34 0 0 Z " fill="#E4E6E7" transform="translate(152,245)"/>
<path d="M0 0 C2.125 0.375 2.125 0.375 4 1 C3.75 3.375 3.75 3.375 3 6 C0.9375 7.3125 0.9375 7.3125 -1 8 C-2 7 -2 7 -2.1875 4.5625 C-2 2 -2 2 0 0 Z " fill="#E2E4E5" transform="translate(316,235)"/>
<path d="M0 0 C0.99 0 1.98 0 3 0 C3 1.98 3 3.96 3 6 C1.02 6.99 1.02 6.99 -1 8 C-1.125 2.25 -1.125 2.25 0 0 Z " fill="#F0F2F2" transform="translate(347,235)"/>
<path d="M0 0 C0.99 0.33 1.98 0.66 3 1 C2.67 2.65 2.34 4.3 2 6 C0.68 6 -0.64 6 -2 6 C-1.125 1.125 -1.125 1.125 0 0 Z " fill="#23353A" transform="translate(256,143)"/>
<path d="M0 0 C0.99 0 1.98 0 3 0 C5.1875 3 5.1875 3 7 6 C6.67 6.66 6.34 7.32 6 8 C4.9970458 6.85675161 3.99770973 5.71032809 3 4.5625 C2.443125 3.92441406 1.88625 3.28632813 1.3125 2.62890625 C0 1 0 1 0 0 Z " fill="#2E4044" transform="translate(301,185)"/>
</svg>
