<?xml version="1.0" encoding="utf-8"?>
<svg version="1.1" xmlns="http://www.w3.org/2000/svg" xmlns:xlink="http://www.w3.org/1999/xlink" width="500" height="500"
     viewBox="0 0 500 500" xml:space="preserve">
<g>
	<path fill="#fff" d="M456.8,46.9c-0.9,0.3-87.6,27-206.3,27S45.1,47.2,44.3,46.9l-7.1-2.2v53.6l4.5,0.8c0.3,0.1,11.7,2.1,30.5,4.8l15.5,37
		l31.8,0v35.4H62.2v31.2h57.3v190.6h-19.3V457h79.1v-58.8H160V207.5h184.4v190.6h-19.3V457h79.1v-58.8h-19.3V207.5h53.9v-31.2h-53.9
		v-35.4l28.9,0l13.1-36.7l1.3-0.2c0,0,0.1,0,0.1,0l1.4-0.2c18.3-2.7,29.5-4.7,29.6-4.7l4.5-0.8V44.7L456.8,46.9z M168.4,409.1v37
		h-57.3v-37H168.4z M229.1,176.3H160v-35.4l69.1,0V176.3z M269.6,176.3v-35.4l74.8,0v35.4H269.6z M393.3,409.1v37H336v-37H393.3z
		 M453,89.1c-3.5,0.6-9.1,1.5-16.2,2.6l0.1-0.2l-10.1,1.7c-37.6,5.4-95.2,12.1-156.1,13.4c-0.4,0-5,0.1-7.1,0.1l-13.3,0.1
		c-91.2,0-181.2-14.2-202-17.7V59.4c23.3,6.4,101.6,25.5,202.4,25.5c100.9,0,179.2-19.1,202.4-25.5V89.1z"/>
</g>
</svg>
